<svg xmlns="http://www.w3.org/2000/svg" width="1200" height="675" viewBox="0 0 1200 675">
  <defs>
    <linearGradient id="bg" x1="0" y1="0" x2="1" y2="1">
      <stop offset="0" stop-color="#3d1f2f"/>
      <stop offset="1" stop-color="#8a3b4f"/>
    </linearGradient>
  </defs>
  <rect width="1200" height="675" fill="url(#bg)"/>
  <rect x="70" y="70" width="1060" height="535" rx="24" fill="#ffffff" opacity="0.08"/>
  <rect x="110" y="120" width="700" height="420" rx="16" fill="#ffffff" opacity="0.12"/>
  <rect x="140" y="160" width="640" height="60" rx="12" fill="#ffffff" opacity="0.18"/>
  <rect x="140" y="240" width="640" height="60" rx="12" fill="#ffffff" opacity="0.18"/>
  <rect x="140" y="320" width="640" height="60" rx="12" fill="#ffffff" opacity="0.18"/>
  <rect x="140" y="400" width="240" height="48" rx="12" fill="#f3b61f" opacity="0.9"/>
  <rect x="840" y="120" width="250" height="320" rx="16" fill="#ffffff" opacity="0.14"/>
  <rect x="870" y="160" width="190" height="32" rx="8" fill="#ffffff" opacity="0.2"/>
  <rect x="870" y="210" width="190" height="24" rx="8" fill="#ffffff" opacity="0.16"/>
  <rect x="870" y="250" width="160" height="24" rx="8" fill="#ffffff" opacity="0.16"/>
  <rect x="870" y="290" width="130" height="24" rx="8" fill="#ffffff" opacity="0.16"/>
  <text x="110" y="575" font-family="Arial, sans-serif" font-size="32" fill="#f8f8f8" opacity="0.85">Checkout</text>
</svg>
